<svg xmlns="http://www.w3.org/2000/svg" viewBox="0 0 60 20"><defs><style>.cls-1{fill:#231f20;}.cls-2,.cls-3,.cls-4{fill:none;stroke-miterlimit:10;}.cls-2,.cls-3{stroke:#fff;}.cls-3{stroke-width:0.75px;}.cls-4{stroke:#231f20;stroke-width:0.25px;}</style></defs><g id="Layer_2" data-name="Layer 2"><g id="Layer_1-2" data-name="Layer 1"><rect class="cls-1" x="33.63" width="26.37" height="19.8" rx="6.93"/><rect class="cls-2" x="37.32" y="2.9" width="18.97" height="13.85" rx="1.38"/><rect class="cls-1" y="0.2" width="26.37" height="19.8" rx="5.83"/><rect class="cls-3" x="3.69" y="3.1" width="18.97" height="13.85" rx="1.38"/><line class="cls-4" x1="25.94" y1="6.2" x2="33.93" y2="6.42"/><path class="cls-4" d="M26.39,9.61A20.38,20.38,0,0,1,29.5,9a4.09,4.09,0,0,1,1.05,0,3.84,3.84,0,0,1,1.05.27l2.14.65"/><line class="cls-4" x1="31.87" y1="4.98" x2="33.58" y2="6.42"/><line class="cls-4" x1="31.86" y1="8.05" x2="33.64" y2="6.58"/><line class="cls-4" x1="27.98" y1="7.79" x2="26.11" y2="9.82"/><line class="cls-4" x1="28.09" y1="10.45" x2="26.27" y2="9.52"/></g></g></svg>