<svg xmlns="http://www.w3.org/2000/svg" viewBox="0 0 50 21"><defs><style>.cls-1{fill:#231f20;}.cls-2,.cls-3{fill:none;stroke-miterlimit:10;}.cls-2{stroke:#fff;}.cls-3{stroke:#231f20;stroke-width:0.5px;}</style></defs><g id="Layer_2" data-name="Layer 2"><g id="Layer_1-2" data-name="Layer 1"><g id="Layer_2-2" data-name="Layer 2"><g id="Layer_1-2-2" data-name="Layer 1-2"><g id="Layer_2-2-2" data-name="Layer 2-2"><g id="Layer_1-2-2-2" data-name="Layer 1-2-2"><path class="cls-1" d="M32.54.16H45.45C48,.16,50,2.86,50,6.18V15c0,3.34-2,6-4.55,6H32.54C30,21,28,18.3,28,15V6.18C28,2.86,30,.16,32.54.16Z"/><path class="cls-2" d="M31.67,2.85H46.41a.63.63,0,0,1,.54.71V16.71a.63.63,0,0,1-.54.71H31.67a.63.63,0,0,1-.54-.71V3.56A.63.63,0,0,1,31.67,2.85Z"/><path class="cls-1" d="M4.55,0H17.46C20,0,22,2.7,22,6v8.78c0,3.32-2,6-4.54,6H4.55C2,20.84,0,18.14,0,14.82V6C0,2.7,2,0,4.55,0Z"/><line class="cls-3" x1="21.64" y1="6.32" x2="28.31" y2="6.55"/><path class="cls-3" d="M22,9.9a14.55,14.55,0,0,1,2.59-.69,3.24,3.24,0,0,1,.88,0,3.47,3.47,0,0,1,.88.28l1.78.68"/><line class="cls-3" x1="26.59" y1="5.03" x2="28.01" y2="6.55"/><line class="cls-3" x1="26.58" y1="8.26" x2="28.06" y2="6.71"/><line class="cls-3" x1="23.34" y1="7.99" x2="21.78" y2="10.12"/><line class="cls-3" x1="23.44" y1="10.78" x2="21.91" y2="9.82"/><path class="cls-2" d="M3.62,2.9H18.37a.65.65,0,0,1,.54.71V16.8a.65.65,0,0,1-.54.71H3.62a.63.63,0,0,1-.53-.71V3.61A.64.64,0,0,1,3.62,2.9Z"/></g></g></g></g></g></g></svg>