<?xml version="1.0" encoding="utf-8"?>
<!-- Generator: Adobe Illustrator 26.0.3, SVG Export Plug-In . SVG Version: 6.00 Build 0)  -->
<svg version="1.1" id="Layer_1" xmlns="http://www.w3.org/2000/svg" xmlns:xlink="http://www.w3.org/1999/xlink" x="0px" y="0px"
	 viewBox="0 0 128 40.5" style="enable-background:new 0 0 128 40.5;" xml:space="preserve">
<style type="text/css">
	.st0{fill:#231F20;}
	.st1{fill:none;stroke:#FFFFFF;stroke-miterlimit:10;}
	.st2{fill:none;stroke:#231F20;stroke-width:0.5;stroke-miterlimit:10;}
</style>
<g id="Layer_2_00000023963051052358800210000001724424439430960548_">
	<g id="Layer_1-2">
		<path class="st0" d="M64.6,19.3h1c0.2,0,0.4,0.3,0.4,0.6v0.8c0,0.3-0.2,0.6-0.4,0.6h-1c-0.2,0-0.4-0.3-0.4-0.6v-0.8
			C64.3,19.5,64.4,19.3,64.6,19.3z"/>
		<path class="st1" d="M64.5,19.5h1.2c0,0,0,0,0,0.1v1.3c0,0,0,0.1,0,0.1h-1.2c0,0,0,0,0-0.1L64.5,19.5
			C64.5,19.6,64.5,19.5,64.5,19.5z"/>
		<path class="st0" d="M62.4,19.3h1c0.2,0,0.4,0.3,0.4,0.6v0.8c0,0.3-0.2,0.6-0.4,0.6h-1c-0.2,0-0.4-0.3-0.4-0.6v-0.8
			C62,19.5,62.2,19.3,62.4,19.3z"/>
		<line class="st2" x1="63.7" y1="19.9" x2="64.3" y2="19.9"/>
		<path class="st2" d="M63.8,20.2c0.1,0,0.1-0.1,0.2-0.1c0,0,0,0,0.1,0c0,0,0,0,0.1,0l0.1,0.1"/>
		<line class="st2" x1="64.1" y1="19.7" x2="64.3" y2="19.9"/>
		<line class="st2" x1="64.1" y1="20" x2="64.3" y2="19.9"/>
		<line class="st2" x1="63.9" y1="20" x2="63.8" y2="20.2"/>
		<line class="st2" x1="63.9" y1="20.3" x2="63.8" y2="20.2"/>
		<path class="st1" d="M62.3,19.5h1.2c0,0,0,0,0,0.1v1.3c0,0,0,0.1,0,0.1h-1.2c0,0,0,0,0-0.1L62.3,19.5
			C62.3,19.6,62.3,19.5,62.3,19.5z"/>
	</g>
</g>
</svg>
