<svg xmlns="http://www.w3.org/2000/svg" viewBox="0 0 50 20"><defs><style>.cls-1{fill:#231f20;}.cls-2,.cls-3{fill:none;stroke-miterlimit:10;}.cls-2{stroke:#fff;}.cls-3{stroke:#231f20;stroke-width:0.5px;}</style></defs><g id="Layer_2" data-name="Layer 2"><g id="Layer_1-2" data-name="Layer 1"><g id="Layer_2-2" data-name="Layer 2"><g id="Layer_1-2-2" data-name="Layer 1-2"><path class="cls-1" d="M32.54.15H45.45C48,.15,50,2.72,50,5.89v8.36C50,17.43,48,20,45.45,20H32.54C30,20,28,17.43,28,14.25V5.89C28,2.72,30,.15,32.54.15Z"/><path class="cls-2" d="M31.67,2.71H46.41a.62.62,0,0,1,.54.68V15.91a.62.62,0,0,1-.54.68H31.67a.62.62,0,0,1-.54-.68V3.39A.62.62,0,0,1,31.67,2.71Z"/><path class="cls-1" d="M4.55,0H17.46C20,0,22,2.57,22,5.75v8.36c0,3.17-2,5.74-4.54,5.74H4.55C2,19.85,0,17.28,0,14.11V5.75C0,2.57,2,0,4.55,0Z"/><line class="cls-3" x1="21.64" y1="6.02" x2="28.31" y2="6.24"/><path class="cls-3" d="M22,9.43a14.91,14.91,0,0,1,2.59-.66,3.24,3.24,0,0,1,.88,0,3.45,3.45,0,0,1,.88.27l1.78.65"/><line class="cls-3" x1="26.59" y1="4.79" x2="28.01" y2="6.24"/><line class="cls-3" x1="26.58" y1="7.87" x2="28.06" y2="6.39"/><line class="cls-3" x1="23.34" y1="7.61" x2="21.78" y2="9.64"/><line class="cls-3" x1="23.44" y1="10.27" x2="21.91" y2="9.35"/><path class="cls-2" d="M3.62,2.76H18.37a.63.63,0,0,1,.54.68V16a.63.63,0,0,1-.54.68H3.62A.62.62,0,0,1,3.09,16V3.44A.62.62,0,0,1,3.62,2.76Z"/></g></g></g></g></svg>