<?xml version="1.0" encoding="utf-8"?>
<!-- Generator: Adobe Illustrator 26.0.3, SVG Export Plug-In . SVG Version: 6.00 Build 0)  -->
<svg version="1.1" id="Layer_1" xmlns="http://www.w3.org/2000/svg" xmlns:xlink="http://www.w3.org/1999/xlink" x="0px" y="0px"
	 viewBox="0 0 50 20" style="enable-background:new 0 0 50 20;" xml:space="preserve">
<style type="text/css">
	.st0{fill:#231F20;}
	.st1{fill:none;stroke:#FFFFFF;stroke-miterlimit:10;}
	.st2{fill:none;stroke:#231F20;stroke-width:0.5;stroke-miterlimit:10;}
</style>
<g id="Layer_2_00000147900902497714289770000008996573555719211963_">
	<g id="Layer_1-2">
		<g id="Layer_2-2">
			<g id="Layer_1-2-2">
				<path class="st0" d="M32.5,0.2h12.9c2.5,0,4.5,2.7,4.5,6V15c0,3.3-2,6-4.5,6H32.5C30,21,28,18.3,28,15V6.2
					C28,2.9,30,0.2,32.5,0.2z"/>
				<path class="st1" d="M31.7,2.8h14.7c0.3,0,0.6,0.4,0.5,0.7v13.1c0,0.4-0.2,0.7-0.5,0.7H31.7c-0.3,0-0.6-0.4-0.5-0.7V3.6
					C31.1,3.2,31.3,2.9,31.7,2.8z"/>
				<path class="st0" d="M4.6,0h12.9C20,0,22,2.7,22,6v8.8c0,3.3-2,6-4.5,6H4.6c-2.6,0-4.6-2.7-4.6-6V6C0,2.7,2,0,4.6,0z"/>
				<line class="st2" x1="21.6" y1="6.3" x2="28.3" y2="6.6"/>
				<path class="st2" d="M22,9.9c0.8-0.3,1.7-0.5,2.6-0.7c0.3,0,0.6,0,0.9,0c0.3,0.1,0.6,0.1,0.9,0.3l1.8,0.7"/>
				<line class="st2" x1="26.6" y1="5" x2="28" y2="6.6"/>
				<line class="st2" x1="26.6" y1="8.3" x2="28.1" y2="6.7"/>
				<line class="st2" x1="23.3" y1="8" x2="21.8" y2="10.1"/>
				<line class="st2" x1="23.4" y1="10.8" x2="21.9" y2="9.8"/>
				<path class="st1" d="M3.6,2.9h14.8c0.3,0,0.6,0.4,0.5,0.7v13.2c0,0.4-0.2,0.7-0.5,0.7H3.6c-0.3,0-0.6-0.4-0.5-0.7V3.6
					C3.1,3.3,3.3,2.9,3.6,2.9z"/>
			</g>
		</g>
	</g>
</g>
</svg>
