<svg xmlns="http://www.w3.org/2000/svg" viewBox="0 0 151.5 168.7"><defs><style>.cls-1,.cls-2,.cls-3,.cls-4{fill:#f04923;}.cls-2,.cls-3,.cls-4{stroke:#fff;stroke-miterlimit:10;}.cls-2{stroke-width:6px;}.cls-3{stroke-width:5px;}.cls-4{stroke-width:4px;}</style></defs><g id="Layer_2" data-name="Layer 2"><g id="Layer_1-2" data-name="Layer 1"><path class="cls-1" d="M138.63,135.92,89.35,165.05a26.24,26.24,0,0,1-26.49.12L13.34,136.48A26.22,26.22,0,0,1,.26,113.91L0,55.47A26.23,26.23,0,0,1,12.88,32.78L62.15,3.65a26.24,26.24,0,0,1,26.49-.12l49.53,28.69a26.21,26.21,0,0,1,13.08,22.57l.25,58.44A26.22,26.22,0,0,1,138.63,135.92Z"/><text/><path class="cls-2" d="M105.45,131.9l-5.2,3.27a47.58,47.58,0,0,1-50.55,0l-5.2-3.27A47.56,47.56,0,0,1,22.21,91.61V78A47.56,47.56,0,0,1,44.5,37.74l5.2-3.26a47.54,47.54,0,0,1,50.55,0l5.2,3.26A47.56,47.56,0,0,1,127.74,78V91.61A47.56,47.56,0,0,1,105.45,131.9Z"/><ellipse class="cls-3" cx="44.53" cy="64.24" rx="11.73" ry="11.89"/><ellipse class="cls-4" cx="65.08" cy="44.69" rx="7.17" ry="7.51"/></g></g></svg>